<svg width="22" height="22" viewBox="0 0 22 22" fill="none" xmlns="http://www.w3.org/2000/svg">
<path fill-rule="evenodd" clip-rule="evenodd" d="M20.7308 10.8175C20.7308 10.0675 20.6635 9.3463 20.5385 8.65399H10.5769V12.7453H16.2692C16.024 14.0675 15.2788 15.1876 14.1587 15.9376V18.5915H17.5769C19.5769 16.7501 20.7308 14.0386 20.7308 10.8175Z" fill="#4285F4"/>
<path fill-rule="evenodd" clip-rule="evenodd" d="M10.5778 21.1537C13.4335 21.1537 15.8278 20.2066 17.5778 18.5912L14.1595 15.9373C13.2124 16.5719 12.0009 16.9469 10.5778 16.9469C7.82297 16.9469 5.49124 15.0864 4.65951 12.5864H1.12585V15.3267C2.86624 18.7835 6.44316 21.1537 10.5778 21.1537Z" fill="#34A853"/>
<path fill-rule="evenodd" clip-rule="evenodd" d="M4.65865 12.5865C4.44712 11.9518 4.32692 11.274 4.32692 10.5768C4.32692 9.87973 4.44712 9.20184 4.65865 8.56723V5.82684H1.125C0.408654 7.25473 0 8.87011 0 10.5768C0 12.2836 0.408654 13.899 1.125 15.3268L4.65865 12.5865Z" fill="#FBBC05"/>
<path fill-rule="evenodd" clip-rule="evenodd" d="M10.5761 4.20673C12.129 4.20673 13.5232 4.74038 14.6194 5.78846L17.653 2.75481C15.8213 1.04808 13.427 0 10.5761 0C6.44147 0 2.86455 2.37019 1.12416 5.82692L4.65781 8.56731C5.48955 6.06731 7.82128 4.20673 10.5761 4.20673Z" fill="#EA4335"/>
</svg>
